<svg width="80" height="80" viewBox="0 0 80 80" fill="none" xmlns="http://www.w3.org/2000/svg">
<path d="M53.9393 68.0607C54.5251 68.6464 55.4749 68.6464 56.0607 68.0607L65.6066 58.5147C66.1924 57.9289 66.1924 56.9792 65.6066 56.3934C65.0208 55.8076 64.0711 55.8076 63.4853 56.3934L55 64.8787L46.5147 56.3934C45.9289 55.8076 44.9792 55.8076 44.3934 56.3934C43.8076 56.9792 43.8076 57.9289 44.3934 58.5147L53.9393 68.0607ZM53.5 12V67H56.5V12H53.5Z" fill="black"/>
<path d="M26.0607 10.9393C25.4749 10.3536 24.5251 10.3536 23.9393 10.9393L14.3934 20.4853C13.8076 21.0711 13.8076 22.0208 14.3934 22.6066C14.9792 23.1924 15.9289 23.1924 16.5147 22.6066L25 14.1213L33.4853 22.6066C34.0711 23.1924 35.0208 23.1924 35.6066 22.6066C36.1924 22.0208 36.1924 21.0711 35.6066 20.4853L26.0607 10.9393ZM26.5 67L26.5 12L23.5 12L23.5 67L26.5 67Z" fill="black"/>
</svg>
